<svg xmlns="http://www.w3.org/2000/svg" viewBox="0 0 556 120" enable-background="new 0 0 556 120"><path d="M116.496 30.885L70.416 4.36c-.927-.532-2.068-.532-2.994 0L21.34 30.886c-.93.535-1.503 1.527-1.503 2.6v53.03c0 1.074.573 2.066 1.503 2.6l46.082 26.524c.926.532 2.067.532 2.993 0l46.082-26.524c.93-.535 1.503-1.527 1.503-2.6v-53.03c0-1.075-.573-2.066-1.504-2.6zm-51.09-9.522c0 .18-.095.344-.25.433l-16.484 9.498c-.334.192-.334.674 0 .867l16.483 9.488c.155.09.25.254.25.433v6.894c0 .385-.415.625-.748.433l-29.96-17.243c-.334-.192-.334-.674 0-.867l29.96-17.262c.332-.192.75.05.75.433v6.895zm37.733 10.8l-29.985 17.26c-.333.19-.75-.05-.75-.434v-6.894c0-.18.097-.344.252-.433l16.508-9.5c.334-.193.334-.675 0-.868l-16.508-9.512c-.155-.09-.25-.254-.25-.433v-6.895c0-.385.416-.625.75-.433l29.984 17.276c.333.192.333.674 0 .866zM215.52 77.36c.19.174.223.468.067.675-1.122 1.488-2.46 2.89-4.012 4.21-1.68 1.43-3.543 2.676-5.586 3.74-2.046 1.063-4.26 1.903-6.638 2.52-2.38.615-4.86.924-7.434.924-4.256 0-8.148-.73-11.676-2.186-3.53-1.455-6.566-3.486-9.114-6.09-2.55-2.604-4.523-5.684-5.922-9.24-1.4-3.556-2.1-7.46-2.1-11.718 0-4.144.7-8.022 2.1-11.634 1.398-3.612 3.373-6.748 5.922-9.408 2.548-2.66 5.6-4.76 9.155-6.3 3.557-1.54 7.49-2.31 11.803-2.31 5.207 0 9.756.953 13.65 2.856 3.76 1.84 6.905 4.464 9.437 7.87.15.205.126.495-.057.67l-7.925 7.617c-.215.208-.56.173-.74-.066-1.607-2.14-3.484-3.878-5.628-5.212-2.297-1.428-5.04-2.142-8.232-2.142-2.52 0-4.79.462-6.805 1.386s-3.725 2.198-5.123 3.822c-1.4 1.625-2.48 3.515-3.234 5.67-.756 2.156-1.135 4.438-1.135 6.846 0 2.465.38 4.76 1.135 6.888.756 2.13 1.834 3.978 3.234 5.544 1.398 1.568 3.078 2.8 5.04 3.696 1.96.896 4.17 1.344 6.636 1.344 2.016 0 3.766-.21 5.25-.63 1.482-.42 2.8-.98 3.947-1.68s2.17-1.513 3.066-2.437c.778-.802 1.536-1.614 2.272-2.438.185-.207.5-.223.704-.036l7.944 7.25zm6.554-44.887c0-.276.224-.5.5-.5h20.332c3.247 0 6.104.462 8.568 1.386 2.463.923 4.52 2.183 6.174 3.78 1.65 1.595 2.884 3.457 3.696 5.585.81 2.13 1.218 4.397 1.218 6.804 0 3.64-.798 6.818-2.395 9.533-1.517 2.584-3.63 4.672-6.338 6.267-.234.137-.32.43-.19.667l11.786 21.26c.185.334-.056.743-.437.743H252.2c-.19 0-.36-.106-.446-.274l-10.138-20.032c-.085-.168-.258-.274-.446-.274h-6.25c-.275 0-.5.224-.5.5V87.5c0 .276-.223.5-.5.5h-11.347c-.276 0-.5-.224-.5-.5V32.473zm20.16 24.783c2.352 0 4.2-.7 5.544-2.1 1.344-1.4 2.016-3.163 2.016-5.292 0-2.295-.672-4.116-2.016-5.46-1.344-1.344-3.192-2.016-5.544-2.016h-7.312c-.276 0-.5.224-.5.5v13.868c0 .276.224.5.5.5h7.312zm30.907-25.283h37.305c.276 0 .5.224.5.5V42.56c0 .277-.224.5-.5.5h-24.62c-.276 0-.5.225-.5.5v9.92c0 .277.224.5.5.5h18.908c.276 0 .5.225.5.5v9.753c0 .276-.224.5-.5.5h-18.908c-.276 0-.5.224-.5.5V76.33c0 .275.224.5.5.5h26.47c.275 0 .5.223.5.5V87.5c0 .276-.225.5-.5.5H273.14c-.276 0-.5-.224-.5-.5V32.473c0-.276.223-.5.5-.5zm64.192 0h13.332c.21 0 .397.13.47.328l20.13 55.028c.12.326-.122.672-.47.672H358.01c-.216 0-.407-.138-.475-.342L353.48 75.49c-.07-.204-.26-.342-.475-.342h-19.02c-.214 0-.405.138-.473.342l-4.055 12.168c-.068.204-.26.342-.474.342H316.79c-.348 0-.59-.348-.467-.675l20.543-55.027c.07-.196.257-.325.466-.325zm12.8 32.694l-6.126-19.052c-.148-.46-.8-.463-.95-.003l-6.276 19.052c-.107.323.134.656.475.656h12.4c.34 0 .58-.33.476-.653zm33.224-21.522H366.21c-.275 0-.5-.224-.5-.5V32.473c0-.276.225-.5.5-.5h47.974c.276 0 .5.224.5.5v10.172c0 .276-.224.5-.5.5h-17.06c-.277 0-.5.224-.5.5V87.5c0 .276-.225.5-.5.5h-11.77c-.275 0-.5-.224-.5-.5V43.645c.002-.277-.222-.5-.498-.5zm39.052-11.172h37.304c.276 0 .5.224.5.5V42.56c0 .277-.224.5-.5.5h-24.62c-.276 0-.5.225-.5.5v9.92c0 .277.224.5.5.5H454c.276 0 .5.225.5.5v9.753c0 .276-.224.5-.5.5h-18.908c-.276 0-.5.224-.5.5V76.33c0 .275.224.5.5.5h26.47c.275 0 .5.223.5.5V87.5c0 .276-.225.5-.5.5h-39.153c-.277 0-.5-.224-.5-.5V32.473c-.002-.276.222-.5.498-.5zm51.798 45.012c.204-.18.516-.156.7.045 1.514 1.658 3.042 2.88 4.582 3.662 1.65.84 3.625 1.26 5.922 1.26 1.345 0 2.59-.21 3.738-.63 1.147-.42 2.17-1.077 3.066-1.974.895-.896 1.596-2.044 2.1-3.444s.756-3.08.756-5.04v-38.39c0-.277.224-.5.5-.5h7.064c.276 0 .5.223.5.5v39.062c0 3.25-.477 6.006-1.43 8.274-.95 2.268-2.225 4.115-3.82 5.544-1.597 1.428-3.46 2.465-5.586 3.107-2.13.645-4.368.968-6.72.968-4.146 0-7.533-.73-10.165-2.185-2.483-1.372-4.566-3.095-6.25-5.165-.17-.21-.14-.52.06-.7l4.983-4.393zm40.905-2.254c.206-.185.515-.172.7.034.7.776 1.47 1.562 2.317 2.36.98.923 2.086 1.75 3.318 2.478 1.23.73 2.604 1.316 4.116 1.764 1.513.45 3.164.672 4.957.672 3.695 0 6.58-.84 8.65-2.52 2.072-1.68 3.11-3.948 3.11-6.805 0-3.08-1.177-5.39-3.53-6.93-2.35-1.54-5.74-2.785-10.163-3.738-2.408-.504-4.592-1.203-6.552-2.1-1.96-.895-3.654-2.016-5.082-3.36-1.428-1.344-2.534-2.898-3.318-4.662-.784-1.764-1.176-3.766-1.176-6.006 0-2.07.392-4.032 1.176-5.88.784-1.848 1.96-3.472 3.528-4.872 1.567-1.4 3.528-2.52 5.88-3.36 2.353-.84 5.067-1.26 8.148-1.26 2.743 0 5.11.294 7.098.882 1.987.588 3.682 1.302 5.082 2.142 1.4.84 2.52 1.708 3.36 2.603.665.71 1.206 1.314 1.626 1.813.173.206.156.51-.042.692l-4.656 4.293c-.2.186-.512.18-.698-.02-.31-.332-.704-.73-1.186-1.19-.672-.644-1.526-1.274-2.562-1.89-1.037-.617-2.24-1.135-3.61-1.555-1.374-.42-2.956-.63-4.747-.63-1.793 0-3.333.24-4.62.714-1.29.476-2.353 1.09-3.192 1.847s-1.456 1.61-1.847 2.562c-.393.952-.588 1.903-.588 2.855 0 1.4.294 2.59.882 3.57.588.98 1.44 1.848 2.562 2.604 1.12.755 2.505 1.4 4.157 1.93 1.65.534 3.54 1.05 5.67 1.555 2.07.504 4.102 1.163 6.09 1.974 1.987.81 3.766 1.904 5.334 3.275 1.568 1.373 2.815 3.052 3.74 5.04.923 1.988 1.385 4.41 1.385 7.266 0 2.41-.504 4.62-1.512 6.638-1.008 2.016-2.394 3.767-4.158 5.25-1.764 1.484-3.85 2.633-6.258 3.443-2.408.813-5.013 1.22-7.812 1.22-2.633 0-5.027-.31-7.183-.925-2.156-.615-4.116-1.398-5.88-2.352-1.764-.952-3.305-2.002-4.62-3.15-1.174-1.022-2.157-2.035-2.952-3.036-.163-.206-.13-.502.063-.68l4.998-4.556z" fill="#405261"/></svg>